<?xml version="1.0" encoding="iso-8859-1"?>
<!--edited with https://boxy-svg.com/app-->
<!--svg version="1.1" id="RussianDoll" xmlns="http://www.w3.org/2000/svg" xmlns:xlink="http://www.w3.org/1999/xlink" x="0px" y="0px"
	 viewBox="0 0 512 512" style="enable-background:new 0 0 512 512;" xml:space="preserve"-->
<svg xmlns="http://www.w3.org/2000/svg" id="RussianDoll" viewBox="8.398 98.788 404.545 333.049" width="404.545" height="333.049">
  <g transform="matrix(0.886574, 0, 0, 0.886574, -69.447556, 17.951368)" style="">
    <g>
      <g transform="matrix(0.574731, 0, 0, 0.574731, 349.753601, 145.918121)" style="">
        <path d="M 297.368 226.128 C 303.601 213.338 306.871 199.25 306.871 185.055 C 306.871 133.288 264.76 91.179 212.994 91.179 C 161.227 91.179 119.117 133.288 119.117 185.055 C 119.117 199.25 122.386 213.339 128.62 226.128 C 102.629 255.807 87.824 297.505 87.824 341.517 C 87.824 389.724 105.258 434.524 135.663 464.441 C 137.131 465.877 139.102 466.687 141.149 466.687 L 284.837 466.687 C 286.886 466.687 288.856 465.878 290.323 464.441 C 320.728 434.524 338.163 389.724 338.163 341.517 C 338.164 297.505 323.357 255.807 297.368 226.128 Z" style="fill: rgb(255, 255, 255);"></path>
        <path d="M 297.349 226.278 C 303.582 213.488 306.852 199.4 306.852 185.205 C 306.852 133.438 264.741 91.329 212.975 91.329 C 161.208 91.329 119.098 133.438 119.098 185.205 C 119.098 199.4 122.367 213.489 128.601 226.278 C 102.61 255.957 87.805 297.655 87.805 341.667 C 87.805 389.874 105.239 434.674 135.644 464.591 C 137.112 466.027 139.083 466.837 141.13 466.837 L 284.818 466.837 C 286.867 466.837 288.837 466.028 290.304 464.591 C 320.709 434.674 338.144 389.874 338.144 341.667 C 338.145 297.655 323.338 255.957 297.349 226.278 Z M 143.743 232.886 C 146.111 230.394 146.57 226.643 144.89 223.649 C 138.258 211.906 134.744 198.605 134.744 185.205 C 134.744 142.071 169.841 106.974 212.976 106.974 C 256.111 106.974 291.206 142.072 291.206 185.205 C 291.206 198.606 287.692 211.906 281.061 223.65 C 279.38 226.643 279.838 230.395 282.207 232.886 C 290.568 241.696 297.628 251.961 303.53 263.116 C 284.408 251.474 263.248 243.308 245.714 238.301 C 263.552 227.263 275.56 207.681 275.56 185.205 C 275.56 150.697 247.492 122.621 212.976 122.621 C 178.459 122.621 150.389 150.697 150.389 185.205 C 150.389 207.68 162.4 227.263 180.236 238.301 C 162.702 243.308 141.542 251.474 122.421 263.116 C 128.322 251.96 135.382 241.695 143.743 232.886 Z M 212.975 232.144 C 187.091 232.144 166.037 211.09 166.037 185.205 C 166.037 184.961 166.105 184.734 166.108 184.491 C 171.742 183.823 177.182 182.475 182.256 180.222 C 183.396 183.13 186.192 185.205 189.505 185.205 C 193.826 185.205 197.329 181.702 197.329 177.382 C 197.329 175.468 196.561 173.776 195.419 172.416 C 202.689 166.897 208.607 160.147 212.976 153.119 C 217.343 160.147 223.263 166.897 230.532 172.416 C 229.39 173.776 228.622 175.468 228.622 177.382 C 228.622 181.702 232.125 185.205 236.445 185.205 C 239.76 185.205 242.555 183.129 243.695 180.221 C 248.769 182.474 254.21 183.823 259.842 184.491 C 259.846 184.734 259.915 184.961 259.915 185.205 C 259.914 211.09 238.859 232.144 212.975 232.144 Z M 169.271 168.432 C 174.859 153.927 187.359 142.888 202.789 139.451 C 197.923 150.776 185.474 164.476 169.271 168.432 Z M 223.161 139.451 C 238.59 142.888 251.091 153.927 256.679 168.432 C 240.475 164.476 228.028 150.776 223.161 139.451 Z M 144.592 451.843 C 51.381 328.593 137.541 269.043 150.536 263.571 C 187.258 248.107 233.135 236.26 273.894 263.619 C 284.708 270.878 371.566 313.45 284.043 450.994 L 144.592 451.843 Z" style="fill: #384257"></path>
        <path d="M 242.965 272.496 L 239.946 263.591 C 230.129 266.356 223.142 270.758 218.988 276.799 C 214.84 282.838 212.765 290.137 212.765 298.693 L 212.765 314.176 C 212.765 319.817 211.481 324.209 208.909 327.358 C 206.343 330.499 202.393 332.07 197.055 332.07 L 197.055 343.176 C 202.393 343.176 206.343 344.721 208.909 347.815 C 211.481 350.914 212.765 355.309 212.765 360.995 L 212.765 376.541 C 212.765 385.152 214.84 392.469 218.988 398.484 C 223.142 404.499 230.129 408.89 239.946 411.655 L 242.965 402.821 C 237.43 401.064 233.491 397.903 231.149 393.344 C 228.809 388.789 227.639 383.188 227.639 376.541 L 227.639 360.995 C 227.639 355.707 226.582 351.051 224.464 347.025 C 222.354 342.997 219.157 339.849 214.877 337.582 C 219.157 335.265 222.354 332.08 224.464 328.03 C 226.582 323.979 227.639 319.36 227.639 314.176 L 227.639 298.693 C 227.639 292.053 228.809 286.48 231.149 281.975 C 233.491 277.471 237.43 274.309 242.965 272.496 Z" style="fill: #384257; white-space: pre;" transform="matrix(-1, 0, 0, -1, 440.019989, 675.246002)"></path>
        <path d="M 267.618 298.425 L 265.821 293.121 C 259.975 294.769 255.816 297.389 253.34 300.986 C 250.87 304.582 249.636 308.929 249.636 314.023 L 249.636 323.245 C 249.636 326.603 248.871 329.218 247.339 331.092 C 245.812 332.964 243.459 333.899 240.282 333.899 L 240.282 340.512 C 243.459 340.512 245.812 341.434 247.339 343.273 C 248.871 345.121 249.636 347.736 249.636 351.124 L 249.636 360.382 C 249.636 365.508 250.87 369.863 253.34 373.444 C 255.816 377.028 259.975 379.642 265.821 381.29 L 267.618 376.03 C 264.323 374.982 261.978 373.101 260.582 370.385 C 259.188 367.673 258.492 364.339 258.492 360.382 L 258.492 351.124 C 258.492 347.975 257.863 345.201 256.603 342.802 C 255.345 340.406 253.443 338.53 250.892 337.182 C 253.443 335.802 255.345 333.906 256.603 331.494 C 257.863 329.082 258.492 326.332 258.492 323.245 L 258.492 314.023 C 258.492 310.07 259.188 306.75 260.582 304.067 C 261.978 301.386 264.323 299.503 267.618 298.425 Z" style="fill: #384257; white-space: pre;" transform="matrix(-1, 0, 0, -1, 507.900009, 674.411011)"></path>
        <path d="M 287.513 312.76 L 286.398 309.47 C 282.773 310.491 280.193 312.116 278.66 314.349 C 277.129 316.577 276.36 319.273 276.36 322.432 L 276.36 328.15 C 276.36 330.233 275.885 331.856 274.935 333.016 C 273.99 334.177 272.53 334.758 270.561 334.758 L 270.561 338.857 C 272.53 338.857 273.99 339.432 274.935 340.573 C 275.885 341.716 276.36 343.34 276.36 345.44 L 276.36 351.181 C 276.36 354.359 277.129 357.061 278.66 359.283 C 280.193 361.505 282.773 363.124 286.398 364.148 L 287.513 360.885 C 285.47 360.234 284.014 359.069 283.149 357.384 C 282.286 355.702 281.853 353.635 281.853 351.181 L 281.853 345.44 C 281.853 343.486 281.461 341.768 280.682 340.279 C 279.902 338.793 278.721 337.631 277.139 336.792 C 278.721 335.938 279.902 334.762 280.682 333.267 C 281.461 331.771 281.853 330.064 281.853 328.15 L 281.853 322.432 C 281.853 319.979 282.286 317.922 283.149 316.259 C 284.014 314.594 285.47 313.428 287.513 312.76 Z" style="fill: #384257; white-space: pre;" transform="matrix(-1, 0, 0, -1, 558.074005, 673.618011)"></path>
        <path d="M 203.259 299.26 L 201.462 293.955 C 195.616 295.602 191.457 298.223 188.982 301.819 C 186.513 305.416 185.277 309.762 185.277 314.86 L 185.277 324.078 C 185.277 327.436 184.512 330.052 182.98 331.927 C 181.455 333.798 179.1 334.732 175.923 334.732 L 175.923 341.346 C 179.1 341.346 181.455 342.268 182.98 344.109 C 184.512 345.955 185.277 348.572 185.277 351.957 L 185.277 361.216 C 185.277 366.342 186.513 370.698 188.982 374.279 C 191.457 377.863 195.616 380.477 201.462 382.123 L 203.259 376.865 C 199.964 375.816 197.619 373.935 196.223 371.219 C 194.829 368.508 194.133 365.172 194.133 361.216 L 194.133 351.957 C 194.133 348.808 193.504 346.035 192.244 343.637 C 190.988 341.239 189.084 339.365 186.533 338.015 C 189.084 336.636 190.988 334.739 192.244 332.329 C 193.504 329.916 194.133 327.165 194.133 324.078 L 194.133 314.86 C 194.133 310.905 194.829 307.585 196.223 304.901 C 197.619 302.219 199.964 300.339 203.259 299.26 Z" style="fill: #384257; white-space: pre;" transform="matrix(-1, 0, 0, -1, 379.182007, 676.077972)"></path>
        <path d="M 174.657 313.626 L 173.541 310.336 C 169.915 311.359 167.335 312.986 165.802 315.215 C 164.269 317.446 163.504 320.139 163.504 323.299 L 163.504 329.018 C 163.504 331.101 163.029 332.722 162.079 333.886 C 161.134 335.045 159.672 335.625 157.703 335.625 L 157.703 339.724 C 159.672 339.724 161.134 340.298 162.079 341.439 C 163.029 342.584 163.504 344.206 163.504 346.308 L 163.504 352.048 C 163.504 355.227 164.269 357.927 165.802 360.149 C 167.335 362.373 169.915 363.993 173.541 365.014 L 174.657 361.753 C 172.61 361.104 171.156 359.935 170.293 358.253 C 169.428 356.568 168.995 354.503 168.995 352.048 L 168.995 346.308 C 168.995 344.356 168.605 342.635 167.822 341.147 C 167.044 339.66 165.865 338.497 164.283 337.662 C 165.865 336.804 167.044 335.628 167.822 334.133 C 168.605 332.637 168.995 330.934 168.995 329.018 L 168.995 323.299 C 168.995 320.849 169.428 318.791 170.293 317.127 C 171.156 315.464 172.61 314.296 174.657 313.626 Z" style="fill: #384257; white-space: pre;" transform="matrix(-1, 0, 0, -1, 332.360001, 675.350006)"></path>
        <path d="M 301.742 321.472 L 301.025 319.358 C 298.697 320.014 297.041 321.06 296.054 322.493 C 295.071 323.925 294.579 325.655 294.579 327.687 L 294.579 331.358 C 294.579 332.696 294.273 333.739 293.664 334.487 C 293.056 335.231 292.119 335.604 290.852 335.604 L 290.852 338.238 C 292.119 338.238 293.056 338.605 293.664 339.338 C 294.273 340.075 294.579 341.118 294.579 342.466 L 294.579 346.155 C 294.579 348.196 295.071 349.93 296.054 351.359 C 297.041 352.786 298.697 353.828 301.025 354.484 L 301.742 352.389 C 300.43 351.97 299.494 351.22 298.939 350.139 C 298.386 349.059 298.106 347.729 298.106 346.155 L 298.106 342.466 C 298.106 341.212 297.857 340.107 297.352 339.15 C 296.853 338.195 296.094 337.45 295.08 336.912 C 296.094 336.362 296.853 335.606 297.352 334.645 C 297.857 333.685 298.106 332.588 298.106 331.358 L 298.106 327.687 C 298.106 326.111 298.386 324.788 298.939 323.72 C 299.494 322.65 300.43 321.902 301.742 321.472 Z" style="fill: #384257; white-space: pre;" transform="matrix(-1, 0, 0, -1, 592.593994, 673.84201)"></path>
        <path d="M 156.332 321.686 L 155.615 319.574 C 153.287 320.23 151.63 321.274 150.644 322.707 C 149.661 324.139 149.168 325.871 149.168 327.901 L 149.168 331.574 C 149.168 332.91 148.862 333.953 148.251 334.701 C 147.644 335.445 146.706 335.818 145.441 335.818 L 145.441 338.452 C 146.706 338.452 147.644 338.821 148.251 339.553 C 148.862 340.289 149.168 341.332 149.168 342.68 L 149.168 346.369 C 149.168 348.41 149.661 350.144 150.644 351.573 C 151.63 353 153.287 354.042 155.615 354.7 L 156.332 352.603 C 155.02 352.185 154.084 351.436 153.528 350.353 C 152.973 349.273 152.695 347.943 152.695 346.369 L 152.695 342.68 C 152.695 341.426 152.446 340.321 151.942 339.366 C 151.442 338.41 150.684 337.664 149.669 337.126 C 150.684 336.576 151.442 335.821 151.942 334.859 C 152.446 333.9 152.695 332.802 152.695 331.574 L 152.695 327.901 C 152.695 326.325 152.973 325.002 153.528 323.934 C 154.084 322.864 155.02 322.117 156.332 321.686 Z" style="fill: #384257; white-space: pre;" transform="matrix(-1, 0, 0, -1, 301.772995, 674.274017)"></path>
      </g>
      <g transform="matrix(0.774804, 0, 0, 0.774804, 193.04657, 72.612015)" style="">
        <path d="M 297.368 226.128 C 303.601 213.338 306.871 199.25 306.871 185.055 C 306.871 133.288 264.76 91.179 212.994 91.179 C 161.227 91.179 119.117 133.288 119.117 185.055 C 119.117 199.25 122.386 213.339 128.62 226.128 C 102.629 255.807 87.824 297.505 87.824 341.517 C 87.824 389.724 105.258 434.524 135.663 464.441 C 137.131 465.877 139.102 466.687 141.149 466.687 L 284.837 466.687 C 286.886 466.687 288.856 465.878 290.323 464.441 C 320.728 434.524 338.163 389.724 338.163 341.517 C 338.164 297.505 323.357 255.807 297.368 226.128 Z" style="fill: rgb(255, 255, 255);"></path>
        <path d="M 297.349 226.278 C 303.582 213.488 306.852 199.4 306.852 185.205 C 306.852 133.438 264.741 91.329 212.975 91.329 C 161.208 91.329 119.098 133.438 119.098 185.205 C 119.098 199.4 122.367 213.489 128.601 226.278 C 102.61 255.957 87.805 297.655 87.805 341.667 C 87.805 389.874 105.239 434.674 135.644 464.591 C 137.112 466.027 139.083 466.837 141.13 466.837 L 284.818 466.837 C 286.867 466.837 288.837 466.028 290.304 464.591 C 320.709 434.674 338.144 389.874 338.144 341.667 C 338.145 297.655 323.338 255.957 297.349 226.278 Z M 143.743 232.886 C 146.111 230.394 146.57 226.643 144.89 223.649 C 138.258 211.906 134.744 198.605 134.744 185.205 C 134.744 142.071 169.841 106.974 212.976 106.974 C 256.111 106.974 291.206 142.072 291.206 185.205 C 291.206 198.606 287.692 211.906 281.061 223.65 C 279.38 226.643 279.838 230.395 282.207 232.886 C 290.568 241.696 297.628 251.961 303.53 263.116 C 284.408 251.474 263.248 243.308 245.714 238.301 C 263.552 227.263 275.56 207.681 275.56 185.205 C 275.56 150.697 247.492 122.621 212.976 122.621 C 178.459 122.621 150.389 150.697 150.389 185.205 C 150.389 207.68 162.4 227.263 180.236 238.301 C 162.702 243.308 141.542 251.474 122.421 263.116 C 128.322 251.96 135.382 241.695 143.743 232.886 Z M 212.975 232.144 C 187.091 232.144 166.037 211.09 166.037 185.205 C 166.037 184.961 166.105 184.734 166.108 184.491 C 171.742 183.823 177.182 182.475 182.256 180.222 C 183.396 183.13 186.192 185.205 189.505 185.205 C 193.826 185.205 197.329 181.702 197.329 177.382 C 197.329 175.468 196.561 173.776 195.419 172.416 C 202.689 166.897 208.607 160.147 212.976 153.119 C 217.343 160.147 223.263 166.897 230.532 172.416 C 229.39 173.776 228.622 175.468 228.622 177.382 C 228.622 181.702 232.125 185.205 236.445 185.205 C 239.76 185.205 242.555 183.129 243.695 180.221 C 248.769 182.474 254.21 183.823 259.842 184.491 C 259.846 184.734 259.915 184.961 259.915 185.205 C 259.914 211.09 238.859 232.144 212.975 232.144 Z M 169.271 168.432 C 174.859 153.927 187.359 142.888 202.789 139.451 C 197.923 150.776 185.474 164.476 169.271 168.432 Z M 223.161 139.451 C 238.59 142.888 251.091 153.927 256.679 168.432 C 240.475 164.476 228.028 150.776 223.161 139.451 Z M 144.592 451.843 C 51.381 328.593 137.541 269.043 150.536 263.571 C 187.258 248.107 233.135 236.26 273.894 263.619 C 284.708 270.878 371.566 313.45 284.043 450.994 L 144.592 451.843 Z" style="fill: #384257"></path>
        <path d="M 195.145 415.759 L 168.505 415.759 L 168.505 278.669 L 195.145 278.669 L 195.145 289.427 L 182.174 289.427 L 182.174 405.001 L 195.145 405.001 L 195.145 415.759 Z M 260.981 415.759 L 234.282 415.759 L 234.282 405.001 L 247.326 405.001 L 247.326 289.427 L 234.282 289.427 L 234.282 278.669 L 260.981 278.669 L 260.981 415.759 Z" style="fill: #384257; white-space: pre;"></path>
        <path d="M 243.554 392.575 L 225.191 392.575 L 225.191 298.08 L 243.554 298.08 L 243.554 305.496 L 234.614 305.496 L 234.614 385.16 L 243.554 385.16 L 243.554 392.575 Z M 288.935 392.575 L 270.531 392.575 L 270.531 385.16 L 279.522 385.16 L 279.522 305.496 L 270.531 305.496 L 270.531 298.08 L 288.935 298.08 L 288.935 392.575 Z" style="fill: #384257; white-space: pre;"></path>
        <path d="M 160.135 393.313 L 141.772 393.313 L 141.772 298.819 L 160.135 298.819 L 160.135 306.234 L 151.195 306.234 L 151.195 385.898 L 160.135 385.898 L 160.135 393.313 Z M 205.516 393.313 L 187.112 393.313 L 187.112 385.898 L 196.103 385.898 L 196.103 306.234 L 187.112 306.234 L 187.112 298.819 L 205.516 298.819 L 205.516 393.313 Z" style="fill: #384257; white-space: pre;"></path>
        <path d="M 277.696 372.633 L 266.618 372.633 L 266.618 315.633 L 277.696 315.633 L 277.696 320.106 L 272.302 320.106 L 272.302 368.16 L 277.696 368.16 L 277.696 372.633 Z M 305.069 372.633 L 293.967 372.633 L 293.967 368.16 L 299.391 368.16 L 299.391 320.106 L 293.967 320.106 L 293.967 315.633 L 305.069 315.633 L 305.069 372.633 Z" style="fill: #384257; white-space: pre;"></path>
        <path d="M 298.198 362.073 L 290.791 362.073 L 290.791 323.961 L 298.198 323.961 L 298.198 326.953 L 294.592 326.953 L 294.592 359.082 L 298.198 359.082 L 298.198 362.073 Z M 316.5 362.073 L 309.077 362.073 L 309.077 359.082 L 312.705 359.082 L 312.705 326.953 L 309.077 326.953 L 309.077 323.961 L 316.5 323.961 L 316.5 362.073 Z" style="fill: #384257; white-space: pre;"></path>
      </g>
      <g>
        <path d="M 297.368 226.128 C 303.601 213.338 306.871 199.25 306.871 185.055 C 306.871 133.288 264.76 91.179 212.994 91.179 C 161.227 91.179 119.117 133.288 119.117 185.055 C 119.117 199.25 122.386 213.339 128.62 226.128 C 102.629 255.807 87.824 297.505 87.824 341.517 C 87.824 389.724 105.258 434.524 135.663 464.441 C 137.131 465.877 139.102 466.687 141.149 466.687 L 284.837 466.687 C 286.886 466.687 288.856 465.878 290.323 464.441 C 320.728 434.524 338.163 389.724 338.163 341.517 C 338.164 297.505 323.357 255.807 297.368 226.128 Z" style="fill: rgb(255, 255, 255);"></path>
        <path d="M 297.349 226.278 C 303.582 213.488 306.852 199.4 306.852 185.205 C 306.852 133.438 264.741 91.329 212.975 91.329 C 161.208 91.329 119.098 133.438 119.098 185.205 C 119.098 199.4 122.367 213.489 128.601 226.278 C 102.61 255.957 87.805 297.655 87.805 341.667 C 87.805 389.874 105.239 434.674 135.644 464.591 C 137.112 466.027 139.083 466.837 141.13 466.837 L 284.818 466.837 C 286.867 466.837 288.837 466.028 290.304 464.591 C 320.709 434.674 338.144 389.874 338.144 341.667 C 338.145 297.655 323.338 255.957 297.349 226.278 Z M 143.743 232.886 C 146.111 230.394 146.57 226.643 144.89 223.649 C 138.258 211.906 134.744 198.605 134.744 185.205 C 134.744 142.071 169.841 106.974 212.976 106.974 C 256.111 106.974 291.206 142.072 291.206 185.205 C 291.206 198.606 287.692 211.906 281.061 223.65 C 279.38 226.643 279.838 230.395 282.207 232.886 C 290.568 241.696 297.628 251.961 303.53 263.116 C 284.408 251.474 263.248 243.308 245.714 238.301 C 263.552 227.263 275.56 207.681 275.56 185.205 C 275.56 150.697 247.492 122.621 212.976 122.621 C 178.459 122.621 150.389 150.697 150.389 185.205 C 150.389 207.68 162.4 227.263 180.236 238.301 C 162.702 243.308 141.542 251.474 122.421 263.116 C 128.322 251.96 135.382 241.695 143.743 232.886 Z M 212.975 232.144 C 187.091 232.144 166.037 211.09 166.037 185.205 C 166.037 184.961 166.105 184.734 166.108 184.491 C 171.742 183.823 177.182 182.475 182.256 180.222 C 183.396 183.13 186.192 185.205 189.505 185.205 C 193.826 185.205 197.329 181.702 197.329 177.382 C 197.329 175.468 196.561 173.776 195.419 172.416 C 202.689 166.897 208.607 160.147 212.976 153.119 C 217.343 160.147 223.263 166.897 230.532 172.416 C 229.39 173.776 228.622 175.468 228.622 177.382 C 228.622 181.702 232.125 185.205 236.445 185.205 C 239.76 185.205 242.555 183.129 243.695 180.221 C 248.769 182.474 254.21 183.823 259.842 184.491 C 259.846 184.734 259.915 184.961 259.915 185.205 C 259.914 211.09 238.859 232.144 212.975 232.144 Z M 169.271 168.432 C 174.859 153.927 187.359 142.888 202.789 139.451 C 197.923 150.776 185.474 164.476 169.271 168.432 Z M 223.161 139.451 C 238.59 142.888 251.091 153.927 256.679 168.432 C 240.475 164.476 228.028 150.776 223.161 139.451 Z M 144.592 451.843 C 51.381 328.593 137.541 269.043 150.536 263.571 C 187.258 248.107 233.135 236.26 273.894 263.619 C 284.708 270.878 371.566 313.45 284.043 450.994 L 144.592 451.843 Z" style="fill: #384257"></path>
        <path d="M 229.996 418.761 L 226.676 428.551 C 215.883 425.511 208.203 420.671 203.636 414.031 C 199.076 407.391 196.796 399.368 196.796 389.961 L 196.796 372.941 C 196.796 366.741 195.383 361.911 192.556 358.451 C 189.736 354.998 185.393 353.271 179.526 353.271 L 179.526 341.061 C 185.393 341.061 189.736 339.361 192.556 335.961 C 195.383 332.554 196.796 327.724 196.796 321.471 L 196.796 304.381 C 196.796 294.914 199.076 286.874 203.636 280.261 C 208.203 273.648 215.883 268.821 226.676 265.781 L 229.996 275.491 C 223.909 277.424 219.579 280.898 217.006 285.911 C 214.433 290.918 213.146 297.074 213.146 304.381 L 213.146 321.471 C 213.146 327.284 211.983 332.404 209.656 336.831 C 207.336 341.258 203.823 344.718 199.116 347.211 C 203.823 349.758 207.336 353.258 209.656 357.711 C 211.983 362.164 213.146 367.241 213.146 372.941 L 213.146 389.961 C 213.146 397.261 214.433 403.388 217.006 408.341 C 219.579 413.294 223.909 416.768 229.996 418.761 Z" style="fill: #384257; white-space: pre;"></path>
        <path d="M 182.478 389.339 L 180.501 395.17 C 174.075 393.359 169.502 390.477 166.782 386.523 C 164.066 382.57 162.708 377.792 162.708 372.19 L 162.708 362.055 C 162.708 358.363 161.867 355.487 160.184 353.426 C 158.505 351.37 155.919 350.342 152.425 350.342 L 152.425 343.072 C 155.919 343.072 158.505 342.059 160.184 340.035 C 161.867 338.006 162.708 335.129 162.708 331.405 L 162.708 321.229 C 162.708 315.593 164.066 310.804 166.782 306.867 C 169.502 302.928 174.075 300.055 180.501 298.244 L 182.478 304.026 C 178.854 305.177 176.275 307.246 174.743 310.231 C 173.211 313.213 172.445 316.878 172.445 321.229 L 172.445 331.405 C 172.445 334.868 171.753 337.916 170.367 340.553 C 168.985 343.19 166.893 345.249 164.09 346.733 C 166.893 348.25 168.985 350.334 170.367 352.985 C 171.753 355.637 172.445 358.661 172.445 362.055 L 172.445 372.19 C 172.445 376.537 173.211 380.186 174.743 383.135 C 176.275 386.085 178.854 388.152 182.478 389.339 Z" style="fill: #384257; white-space: pre;"></path>
        <path d="M 149.192 372.709 L 147.966 376.325 C 143.981 375.202 141.145 373.415 139.459 370.963 C 137.775 368.511 136.931 365.549 136.931 362.075 L 136.931 355.789 C 136.931 353.5 136.41 351.716 135.366 350.438 C 134.326 349.163 132.721 348.526 130.555 348.526 L 130.555 344.018 C 132.721 344.018 134.326 343.388 135.366 342.134 C 136.41 340.876 136.931 339.092 136.931 336.782 L 136.931 330.471 C 136.931 326.977 137.775 324.007 139.459 321.565 C 141.145 319.122 143.981 317.341 147.966 316.217 L 149.192 319.803 C 146.945 320.517 145.345 321.8 144.395 323.651 C 143.445 325.501 142.97 327.773 142.97 330.471 L 142.97 336.782 C 142.97 338.929 142.541 340.819 141.681 342.455 C 140.825 344.09 139.527 345.367 137.789 346.287 C 139.527 347.228 140.825 348.521 141.681 350.164 C 142.541 351.81 142.97 353.685 142.97 355.789 L 142.97 362.075 C 142.97 364.77 143.445 367.033 144.395 368.861 C 145.345 370.691 146.945 371.973 149.192 372.709 Z" style="fill: #384257; white-space: pre;"></path>
        <path d="M 253.229 390.256 L 251.252 396.087 C 244.826 394.276 240.253 391.394 237.533 387.44 C 234.817 383.487 233.459 378.709 233.459 373.107 L 233.459 362.972 C 233.459 359.28 232.618 356.404 230.935 354.343 C 229.256 352.287 226.67 351.259 223.176 351.259 L 223.176 343.989 C 226.67 343.989 229.256 342.976 230.935 340.952 C 232.618 338.923 233.459 336.046 233.459 332.322 L 233.459 322.146 C 233.459 316.51 234.817 311.721 237.533 307.784 C 240.253 303.845 244.826 300.972 251.252 299.161 L 253.229 304.943 C 249.605 306.094 247.026 308.163 245.494 311.148 C 243.962 314.13 243.196 317.795 243.196 322.146 L 243.196 332.322 C 243.196 335.785 242.504 338.833 241.118 341.47 C 239.736 344.107 237.644 346.166 234.841 347.65 C 237.644 349.167 239.736 351.251 241.118 353.902 C 242.504 356.554 243.196 359.578 243.196 362.972 L 243.196 373.107 C 243.196 377.454 243.962 381.103 245.494 384.052 C 247.026 387.002 249.605 389.069 253.229 390.256 Z" style="fill: #384257; white-space: pre;"></path>
        <path d="M 273.259 373.663 L 272.033 377.279 C 268.048 376.156 265.212 374.369 263.526 371.917 C 261.842 369.465 260.998 366.503 260.998 363.029 L 260.998 356.743 C 260.998 354.454 260.477 352.67 259.433 351.392 C 258.393 350.117 256.788 349.48 254.622 349.48 L 254.622 344.972 C 256.788 344.972 258.393 344.342 259.433 343.088 C 260.477 341.83 260.998 340.046 260.998 337.736 L 260.998 331.425 C 260.998 327.931 261.842 324.961 263.526 322.519 C 265.212 320.076 268.048 318.295 272.033 317.171 L 273.259 320.757 C 271.012 321.471 269.412 322.754 268.462 324.605 C 267.512 326.455 267.037 328.727 267.037 331.425 L 267.037 337.736 C 267.037 339.883 266.608 341.773 265.748 343.409 C 264.892 345.044 263.594 346.321 261.856 347.241 C 263.594 348.182 264.892 349.475 265.748 351.118 C 266.608 352.764 267.037 354.639 267.037 356.743 L 267.037 363.029 C 267.037 365.724 267.512 367.987 268.462 369.815 C 269.412 371.645 271.012 372.927 273.259 373.663 Z" style="fill: #384257; white-space: pre;"></path>
        <path d="M 126.884 363.379 L 126.097 365.702 C 123.537 364.981 121.715 363.833 120.632 362.257 C 119.55 360.682 119.008 358.779 119.008 356.548 L 119.008 352.51 C 119.008 351.039 118.673 349.893 118.002 349.072 C 117.334 348.253 116.303 347.844 114.912 347.844 L 114.912 344.948 C 116.303 344.948 117.334 344.543 118.002 343.738 C 118.673 342.929 119.008 341.783 119.008 340.299 L 119.008 336.245 C 119.008 334.001 119.55 332.093 120.632 330.524 C 121.715 328.955 123.537 327.81 126.097 327.088 L 126.884 329.392 C 125.441 329.851 124.413 330.675 123.803 331.864 C 123.192 333.052 122.887 334.512 122.887 336.245 L 122.887 340.299 C 122.887 341.679 122.612 342.893 122.059 343.944 C 121.509 344.994 120.675 345.814 119.559 346.405 C 120.675 347.01 121.509 347.841 122.059 348.896 C 122.612 349.953 122.887 351.158 122.887 352.51 L 122.887 356.548 C 122.887 358.279 123.192 359.733 123.803 360.907 C 124.413 362.083 125.441 362.906 126.884 363.379 Z" style="fill: #384257; white-space: pre;"></path>
        <path d="M 286.738 363.615 L 285.951 365.938 C 283.391 365.217 281.569 364.069 280.486 362.493 C 279.404 360.918 278.862 359.015 278.862 356.784 L 278.862 352.746 C 278.862 351.275 278.527 350.129 277.856 349.308 C 277.188 348.489 276.157 348.08 274.766 348.08 L 274.766 345.184 C 276.157 345.184 277.188 344.779 277.856 343.974 C 278.527 343.165 278.862 342.019 278.862 340.535 L 278.862 336.481 C 278.862 334.237 279.404 332.329 280.486 330.76 C 281.569 329.191 283.391 328.046 285.951 327.324 L 286.738 329.628 C 285.295 330.087 284.267 330.911 283.657 332.1 C 283.046 333.288 282.741 334.748 282.741 336.481 L 282.741 340.535 C 282.741 341.915 282.466 343.129 281.913 344.18 C 281.363 345.23 280.529 346.05 279.413 346.641 C 280.529 347.246 281.363 348.077 281.913 349.132 C 282.466 350.189 282.741 351.394 282.741 352.746 L 282.741 356.784 C 282.741 358.515 283.046 359.969 283.657 361.143 C 284.267 362.319 285.295 363.142 286.738 363.615 Z" style="fill: #384257; white-space: pre;"></path>
      </g>
    </g>
  </g>
</svg>