<?xml version="1.0" encoding="iso-8859-1"?>
<!--edited with https://boxy-svg.com/app-->
<!--384257 607195-->
<!--svg version="1.1" id="RussianDoll" xmlns="http://www.w3.org/2000/svg" xmlns:xlink="http://www.w3.org/1999/xlink" x="0px" y="0px"
	 viewBox="0 0 512 512" style="enable-background:new 0 0 512 512;" xml:space="preserve"-->
<svg xmlns="http://www.w3.org/2000/svg" id="RussianDoll" viewBox="8.398 98.788 404.545 333.049" width="404.545" height="333.049">
  <g transform="matrix(0.886574, 0, 0, 0.886574, -69.447556, 17.951368)" style="">
    <g>
      <path d="M 520.66 275.881 C 524.243 268.53 526.122 260.433 526.122 252.275 C 526.122 222.523 501.919 198.322 472.168 198.322 C 442.416 198.322 418.214 222.523 418.214 252.275 C 418.214 260.433 420.093 268.531 423.676 275.881 C 408.738 292.938 400.229 316.903 400.229 342.199 C 400.229 369.905 410.249 395.653 427.723 412.847 C 428.567 413.672 429.7 414.138 430.876 414.138 L 513.458 414.138 C 514.636 414.138 515.768 413.673 516.611 412.847 C 534.086 395.653 544.106 369.905 544.106 342.199 C 544.107 316.903 535.597 292.938 520.66 275.881 Z" style="fill: rgb(27, 85, 131);"></path>
      <path d="M 431.684 406.487 C 377.369 334.667 427.575 299.965 435.149 296.777 C 456.547 287.765 483.281 280.862 507.031 296.805 C 513.333 301.034 563.946 325.842 512.945 405.992 L 431.684 406.487 Z" style="fill: rgb(250, 210, 1);"></path>
      <path d="M 520.649 275.967 C 524.232 268.616 526.111 260.519 526.111 252.361 C 526.111 222.609 501.908 198.408 472.157 198.408 C 442.405 198.408 418.203 222.609 418.203 252.361 C 418.203 260.519 420.082 268.617 423.665 275.967 C 408.727 293.025 400.218 316.99 400.218 342.285 C 400.218 369.991 410.238 395.739 427.712 412.933 C 428.556 413.758 429.689 414.224 430.865 414.224 L 513.447 414.224 C 514.625 414.224 515.757 413.759 516.6 412.933 C 534.075 395.739 544.095 369.991 544.095 342.285 C 544.096 316.99 535.586 293.025 520.649 275.967 Z M 432.367 279.765 C 433.728 278.333 433.992 276.177 433.026 274.456 C 429.215 267.707 427.195 260.063 427.195 252.361 C 427.195 227.571 447.366 207.399 472.158 207.399 C 496.949 207.399 517.119 227.571 517.119 252.361 C 517.119 260.063 515.099 267.707 511.288 274.457 C 510.322 276.177 510.585 278.333 511.947 279.765 C 516.752 284.828 520.81 290.728 524.202 297.139 C 513.212 290.448 501.05 285.755 490.973 282.877 C 501.225 276.533 508.126 265.279 508.126 252.361 C 508.126 232.528 491.995 216.392 472.158 216.392 C 452.32 216.392 436.187 232.528 436.187 252.361 C 436.187 265.278 443.09 276.533 453.341 282.877 C 443.263 285.755 431.102 290.448 420.113 297.139 C 423.504 290.727 427.562 284.828 432.367 279.765 Z M 472.157 279.338 C 457.281 279.338 445.18 267.238 445.18 252.361 C 445.18 252.221 445.219 252.09 445.221 251.951 C 448.459 251.567 451.586 250.792 454.502 249.497 C 455.157 251.169 456.764 252.361 458.668 252.361 C 461.151 252.361 463.165 250.348 463.165 247.865 C 463.165 246.765 462.723 245.793 462.067 245.011 C 466.245 241.839 469.647 237.96 472.158 233.92 C 474.667 237.96 478.07 241.839 482.247 245.011 C 481.591 245.793 481.15 246.765 481.15 247.865 C 481.15 250.348 483.163 252.361 485.646 252.361 C 487.551 252.361 489.157 251.168 489.813 249.497 C 492.729 250.792 495.856 251.567 499.093 251.951 C 499.095 252.09 499.135 252.221 499.135 252.361 C 499.134 267.238 487.033 279.338 472.157 279.338 Z M 447.039 242.721 C 450.25 234.385 457.435 228.04 466.303 226.065 C 463.506 232.574 456.351 240.448 447.039 242.721 Z M 478.011 226.065 C 486.879 228.04 494.063 234.385 497.275 242.721 C 487.962 240.448 480.808 232.574 478.011 226.065 Z M 432.855 405.606 C 379.284 334.771 428.803 300.545 436.271 297.401 C 457.377 288.513 483.744 281.704 507.169 297.428 C 513.384 301.6 563.304 326.068 513.002 405.118 L 432.855 405.606 Z" style="fill: #a4c1ff"></path>
      <path d="M 489.393 302.53 L 487.658 297.412 C 482.016 299.001 478 301.531 475.613 305.003 C 473.229 308.474 472.036 312.669 472.036 317.586 L 472.036 326.485 C 472.036 329.727 471.298 332.251 469.82 334.061 C 468.345 335.866 466.075 336.769 463.007 336.769 L 463.007 343.152 C 466.075 343.152 468.345 344.04 469.82 345.818 C 471.298 347.599 472.036 350.125 472.036 353.393 L 472.036 362.328 C 472.036 367.277 473.229 371.482 475.613 374.939 C 478 378.396 482.016 380.92 487.658 382.509 L 489.393 377.432 C 486.212 376.422 483.948 374.605 482.602 371.985 C 481.257 369.367 480.585 366.148 480.585 362.328 L 480.585 353.393 C 480.585 350.354 479.977 347.678 478.76 345.364 C 477.547 343.049 475.71 341.24 473.25 339.937 C 475.71 338.605 477.547 336.775 478.76 334.447 C 479.977 332.119 480.585 329.464 480.585 326.485 L 480.585 317.586 C 480.585 313.77 481.257 310.567 482.602 307.978 C 483.948 305.389 486.212 303.572 489.393 302.53 Z" style="fill: rgb(27, 85, 131); white-space: pre;" transform="matrix(-1, 0, 0, -1, 952.399994, 679.92099)"></path>
      <path d="M 503.562 317.432 L 502.529 314.384 C 499.169 315.331 496.779 316.837 495.356 318.904 C 493.936 320.971 493.227 323.469 493.227 326.397 L 493.227 331.697 C 493.227 333.627 492.787 335.13 491.907 336.207 C 491.029 337.283 489.677 337.82 487.851 337.82 L 487.851 341.621 C 489.677 341.621 491.029 342.151 491.907 343.208 C 492.787 344.27 493.227 345.773 493.227 347.72 L 493.227 353.041 C 493.227 355.987 493.936 358.49 495.356 360.548 C 496.779 362.608 499.169 364.11 502.529 365.057 L 503.562 362.034 C 501.668 361.432 500.32 360.351 499.518 358.79 C 498.717 357.231 498.317 355.315 498.317 353.041 L 498.317 347.72 C 498.317 345.91 497.955 344.316 497.231 342.937 C 496.508 341.56 495.415 340.482 493.949 339.707 C 495.415 338.914 496.508 337.824 497.231 336.438 C 497.955 335.052 498.317 333.471 498.317 331.697 L 498.317 326.397 C 498.317 324.125 498.717 322.217 499.518 320.675 C 500.32 319.134 501.668 318.052 503.562 317.432 Z" style="fill: rgb(27, 85, 131); white-space: pre;" transform="matrix(-1, 0, 0, -1, 991.413025, 679.44101)"></path>
      <path d="M 514.996 325.671 L 514.355 323.78 C 512.272 324.367 510.789 325.301 509.908 326.584 C 509.028 327.865 508.586 329.414 508.586 331.23 L 508.586 334.516 C 508.586 335.713 508.313 336.646 507.767 337.313 C 507.224 337.98 506.385 338.314 505.253 338.314 L 505.253 340.67 C 506.385 340.67 507.224 341 507.767 341.656 C 508.313 342.313 508.586 343.246 508.586 344.453 L 508.586 347.753 C 508.586 349.579 509.028 351.132 509.908 352.409 C 510.789 353.686 512.272 354.617 514.355 355.205 L 514.996 353.33 C 513.822 352.956 512.985 352.286 512.488 351.318 C 511.992 350.351 511.743 349.163 511.743 347.753 L 511.743 344.453 C 511.743 343.33 511.518 342.343 511.07 341.487 C 510.622 340.633 509.943 339.965 509.034 339.483 C 509.943 338.992 510.622 338.316 511.07 337.457 C 511.518 336.597 511.743 335.616 511.743 334.516 L 511.743 331.23 C 511.743 329.82 511.992 328.638 512.488 327.682 C 512.985 326.725 513.822 326.055 514.996 325.671 Z" style="fill: rgb(27, 85, 131); white-space: pre;" transform="matrix(-1, 0, 0, -1, 1020.248962, 678.984985)"></path>
      <path d="M 466.573 317.912 L 465.54 314.863 C 462.18 315.81 459.79 317.316 458.367 319.383 C 456.948 321.45 456.238 323.948 456.238 326.878 L 456.238 332.176 C 456.238 334.106 455.798 335.609 454.918 336.687 C 454.041 337.762 452.688 338.299 450.862 338.299 L 450.862 342.1 C 452.688 342.1 454.041 342.63 454.918 343.688 C 455.798 344.749 456.238 346.253 456.238 348.199 L 456.238 353.52 C 456.238 356.466 456.948 358.97 458.367 361.028 C 459.79 363.088 462.18 364.59 465.54 365.536 L 466.573 362.514 C 464.679 361.911 463.331 360.83 462.529 359.269 C 461.728 357.711 461.328 355.794 461.328 353.52 L 461.328 348.199 C 461.328 346.389 460.966 344.795 460.242 343.417 C 459.52 342.039 458.426 340.962 456.96 340.186 C 458.426 339.393 459.52 338.303 460.242 336.918 C 460.966 335.531 461.328 333.95 461.328 332.176 L 461.328 326.878 C 461.328 324.605 461.728 322.697 462.529 321.154 C 463.331 319.613 464.679 318.532 466.573 317.912 Z" style="fill: rgb(27, 85, 131); white-space: pre;" transform="matrix(-1, 0, 0, -1, 917.434998, 680.399017)"></path>
      <path d="M 450.134 326.169 L 449.493 324.278 C 447.409 324.866 445.926 325.801 445.045 327.082 C 444.164 328.364 443.724 329.912 443.724 331.728 L 443.724 335.015 C 443.724 336.212 443.451 337.144 442.905 337.813 C 442.362 338.479 441.522 338.812 440.39 338.812 L 440.39 341.168 C 441.522 341.168 442.362 341.498 442.905 342.154 C 443.451 342.812 443.724 343.744 443.724 344.952 L 443.724 348.251 C 443.724 350.078 444.164 351.63 445.045 352.907 C 445.926 354.185 447.409 355.116 449.493 355.703 L 450.134 353.829 C 448.958 353.456 448.122 352.784 447.626 351.817 C 447.129 350.849 446.88 349.662 446.88 348.251 L 446.88 344.952 C 446.88 343.83 446.656 342.841 446.206 341.986 C 445.759 341.131 445.081 340.463 444.172 339.983 C 445.081 339.49 445.759 338.814 446.206 337.955 C 446.656 337.095 446.88 336.116 446.88 335.015 L 446.88 331.728 C 446.88 330.32 447.129 329.137 447.626 328.181 C 448.122 327.225 448.958 326.554 450.134 326.169 Z" style="fill: rgb(27, 85, 131); white-space: pre;" transform="matrix(-1, 0, 0, -1, 890.524017, 679.981018)"></path>
      <path d="M 523.174 330.678 L 522.762 329.463 C 521.424 329.84 520.472 330.441 519.905 331.265 C 519.34 332.088 519.057 333.082 519.057 334.25 L 519.057 336.36 C 519.057 337.129 518.881 337.728 518.531 338.158 C 518.182 338.586 517.643 338.8 516.915 338.8 L 516.915 340.314 C 517.643 340.314 518.182 340.525 518.531 340.946 C 518.881 341.37 519.057 341.969 519.057 342.744 L 519.057 344.864 C 519.057 346.037 519.34 347.034 519.905 347.855 C 520.472 348.675 521.424 349.274 522.762 349.651 L 523.174 348.447 C 522.42 348.206 521.882 347.775 521.563 347.154 C 521.245 346.533 521.084 345.769 521.084 344.864 L 521.084 342.744 C 521.084 342.023 520.941 341.388 520.651 340.838 C 520.364 340.289 519.928 339.861 519.345 339.552 C 519.928 339.236 520.364 338.801 520.651 338.249 C 520.941 337.697 521.084 337.067 521.084 336.36 L 521.084 334.25 C 521.084 333.344 521.245 332.584 521.563 331.97 C 521.882 331.355 522.42 330.925 523.174 330.678 Z" style="fill: rgb(27, 85, 131); white-space: pre;" transform="matrix(-1, 0, 0, -1, 1040.088989, 679.114014)"></path>
      <path d="M 439.602 330.801 L 439.19 329.587 C 437.852 329.964 436.9 330.564 436.333 331.388 C 435.768 332.211 435.485 333.206 435.485 334.373 L 435.485 336.484 C 435.485 337.252 435.309 337.851 434.958 338.281 C 434.609 338.709 434.07 338.923 433.343 338.923 L 433.343 340.437 C 434.07 340.437 434.609 340.649 434.958 341.07 C 435.309 341.493 435.485 342.092 435.485 342.867 L 435.485 344.987 C 435.485 346.16 435.768 347.157 436.333 347.978 C 436.9 348.798 437.852 349.397 439.19 349.775 L 439.602 348.57 C 438.848 348.33 438.31 347.899 437.991 347.277 C 437.672 346.656 437.512 345.892 437.512 344.987 L 437.512 342.867 C 437.512 342.146 437.369 341.511 437.079 340.962 C 436.792 340.413 436.356 339.984 435.773 339.675 C 436.356 339.359 436.792 338.925 437.079 338.372 C 437.369 337.821 437.512 337.19 437.512 336.484 L 437.512 334.373 C 437.512 333.467 437.672 332.707 437.991 332.093 C 438.31 331.478 438.848 331.049 439.602 330.801 Z" style="fill: rgb(27, 85, 131); white-space: pre;" transform="matrix(-1, 0, 0, -1, 872.944977, 679.362)"></path>
      <path d="M 423.448 247.817 C 428.278 237.907 430.811 226.992 430.811 215.993 C 430.811 175.884 398.184 143.258 358.075 143.258 C 317.966 143.258 285.339 175.884 285.339 215.993 C 285.339 226.992 287.872 237.908 292.702 247.817 C 272.564 270.812 261.093 303.12 261.093 337.221 C 261.093 374.572 274.601 409.283 298.159 432.463 C 299.296 433.575 300.823 434.203 302.409 434.203 L 413.739 434.203 C 415.327 434.203 416.853 433.576 417.99 432.463 C 441.548 409.283 455.057 374.572 455.057 337.221 C 455.057 303.12 443.585 270.812 423.448 247.817 Z" style="fill: rgb(27, 85, 131);"></path>
      <path d="M 305.499 422.886 C 233.178 327.257 300.028 281.051 310.112 276.806 C 338.604 264.808 374.2 255.616 405.824 276.844 C 414.215 282.475 481.607 315.507 413.699 422.227 L 305.499 422.886 Z" style="fill: rgb(250, 210, 1);"></path>
      <path d="M 423.434 247.933 C 428.263 238.023 430.797 227.108 430.797 216.11 C 430.797 176 398.169 143.374 358.06 143.374 C 317.951 143.374 285.324 176 285.324 216.11 C 285.324 227.108 287.857 238.024 292.687 247.933 C 272.549 270.929 261.078 303.236 261.078 337.337 C 261.078 374.688 274.586 409.399 298.144 432.579 C 299.281 433.692 300.809 434.319 302.395 434.319 L 413.725 434.319 C 415.312 434.319 416.839 433.692 417.975 432.579 C 441.533 409.399 455.042 374.688 455.042 337.337 C 455.043 303.236 443.57 270.929 423.434 247.933 Z M 304.419 253.053 C 306.254 251.122 306.61 248.216 305.308 245.896 C 300.169 236.798 297.447 226.492 297.447 216.11 C 297.447 182.689 324.64 155.496 358.061 155.496 C 391.482 155.496 418.674 182.69 418.674 216.11 C 418.674 226.493 415.951 236.798 410.814 245.897 C 409.511 248.216 409.866 251.123 411.702 253.053 C 418.18 259.879 423.65 267.832 428.223 276.475 C 413.407 267.455 397.012 261.128 383.427 257.249 C 397.248 248.696 406.552 233.524 406.552 216.11 C 406.552 189.373 384.804 167.619 358.061 167.619 C 331.317 167.619 309.569 189.373 309.569 216.11 C 309.569 233.523 318.875 248.696 332.694 257.249 C 319.109 261.128 302.714 267.455 287.899 276.475 C 292.471 267.832 297.941 259.878 304.419 253.053 Z M 358.06 252.478 C 338.005 252.478 321.693 236.165 321.693 216.11 C 321.693 215.921 321.745 215.745 321.748 215.556 C 326.113 215.039 330.328 213.994 334.259 212.249 C 335.143 214.502 337.309 216.11 339.876 216.11 C 343.224 216.11 345.938 213.395 345.938 210.048 C 345.938 208.565 345.343 207.254 344.458 206.201 C 350.091 201.924 354.676 196.695 358.061 191.249 C 361.445 196.695 366.032 201.924 371.664 206.201 C 370.779 207.254 370.184 208.565 370.184 210.048 C 370.184 213.395 372.898 216.11 376.245 216.11 C 378.814 216.11 380.979 214.501 381.862 212.248 C 385.794 213.994 390.009 215.039 394.373 215.556 C 394.376 215.745 394.43 215.921 394.43 216.11 C 394.429 236.165 378.115 252.478 358.06 252.478 Z M 324.198 203.114 C 328.528 191.875 338.213 183.322 350.168 180.659 C 346.398 189.434 336.753 200.049 324.198 203.114 Z M 365.953 180.659 C 377.907 183.322 387.593 191.875 391.922 203.114 C 379.368 200.049 369.724 189.434 365.953 180.659 Z M 305.077 422.702 C 232.857 327.207 299.614 281.068 309.682 276.828 C 338.135 264.846 373.68 255.667 405.261 276.865 C 413.639 282.489 480.937 315.474 413.124 422.044 L 305.077 422.702 Z" style="fill: #a4c1ff"></path>
      <path d="M 344.246 394.744 L 323.605 394.744 L 323.605 288.526 L 344.246 288.526 L 344.246 296.861 L 334.196 296.861 L 334.196 386.408 L 344.246 386.408 L 344.246 394.744 Z M 395.256 394.744 L 374.569 394.744 L 374.569 386.408 L 384.676 386.408 L 384.676 296.861 L 374.569 296.861 L 374.569 288.526 L 395.256 288.526 L 395.256 394.744 Z" style="fill: rgb(27, 85, 131); white-space: pre;"></path>
      <path d="M 381.753 376.781 L 367.525 376.781 L 367.525 303.566 L 381.753 303.566 L 381.753 309.312 L 374.826 309.312 L 374.826 371.036 L 381.753 371.036 L 381.753 376.781 Z M 416.915 376.781 L 402.655 376.781 L 402.655 371.036 L 409.621 371.036 L 409.621 309.312 L 402.655 309.312 L 402.655 303.566 L 416.915 303.566 L 416.915 376.781 Z" style="fill: rgb(27, 85, 131); white-space: pre;"></path>
      <path d="M 317.12 377.352 L 302.892 377.352 L 302.892 304.138 L 317.12 304.138 L 317.12 309.883 L 310.193 309.883 L 310.193 371.607 L 317.12 371.607 L 317.12 377.352 Z M 352.281 377.352 L 338.022 377.352 L 338.022 371.607 L 344.988 371.607 L 344.988 309.883 L 338.022 309.883 L 338.022 304.138 L 352.281 304.138 L 352.281 377.352 Z" style="fill: rgb(27, 85, 131); white-space: pre;"></path>
      <path d="M 408.207 361.33 L 399.623 361.33 L 399.623 317.166 L 408.207 317.166 L 408.207 320.631 L 404.027 320.631 L 404.027 357.864 L 408.207 357.864 L 408.207 361.33 Z M 429.415 361.33 L 420.813 361.33 L 420.813 357.864 L 425.016 357.864 L 425.016 320.631 L 420.813 320.631 L 420.813 317.166 L 429.415 317.166 L 429.415 361.33 Z" style="fill: rgb(27, 85, 131); white-space: pre;"></path>
      <path d="M 424.092 353.148 L 418.353 353.148 L 418.353 323.618 L 424.092 323.618 L 424.092 325.937 L 421.298 325.937 L 421.298 350.83 L 424.092 350.83 L 424.092 353.148 Z M 438.272 353.148 L 432.521 353.148 L 432.521 350.83 L 435.332 350.83 L 435.332 325.937 L 432.521 325.937 L 432.521 323.618 L 438.272 323.618 L 438.272 353.148 Z" style="fill: rgb(27, 85, 131); white-space: pre;"></path>
      <path d="M 297.368 226.128 C 303.601 213.338 306.871 199.25 306.871 185.055 C 306.871 133.288 264.76 91.179 212.994 91.179 C 161.227 91.179 119.117 133.288 119.117 185.055 C 119.117 199.25 122.386 213.339 128.62 226.128 C 102.629 255.807 87.824 297.505 87.824 341.517 C 87.824 389.724 105.258 434.524 135.663 464.441 C 137.131 465.877 139.102 466.687 141.149 466.687 L 284.837 466.687 C 286.886 466.687 288.856 465.878 290.323 464.441 C 320.728 434.524 338.163 389.724 338.163 341.517 C 338.164 297.505 323.357 255.807 297.368 226.128 Z" style="fill: rgb(27, 85, 131);"></path>
      <path d="M 144.654 451.677 C 51.443 328.427 137.603 268.877 150.598 263.405 C 187.32 247.941 233.197 236.094 273.956 263.453 C 284.77 270.712 371.628 313.284 284.105 450.828 L 144.654 451.677 Z" style="fill: rgb(250, 210, 1);"></path>
      <path d="M 297.349 226.278 C 303.582 213.488 306.852 199.4 306.852 185.205 C 306.852 133.438 264.741 91.329 212.975 91.329 C 161.208 91.329 119.098 133.438 119.098 185.205 C 119.098 199.4 122.367 213.489 128.601 226.278 C 102.61 255.957 87.805 297.655 87.805 341.667 C 87.805 389.874 105.239 434.674 135.644 464.591 C 137.112 466.027 139.083 466.837 141.13 466.837 L 284.818 466.837 C 286.867 466.837 288.837 466.028 290.304 464.591 C 320.709 434.674 338.144 389.874 338.144 341.667 C 338.145 297.655 323.338 255.957 297.349 226.278 Z M 143.743 232.886 C 146.111 230.394 146.57 226.643 144.89 223.649 C 138.258 211.906 134.744 198.605 134.744 185.205 C 134.744 158.133 148.57 134.226 169.531 120.176 C 181.967 111.84 196.914 106.974 212.976 106.974 C 256.111 106.974 291.206 142.072 291.206 185.205 C 291.206 198.606 287.692 211.906 281.061 223.65 C 279.38 226.643 279.838 230.395 282.207 232.886 C 290.568 241.696 297.628 251.961 303.53 263.116 C 284.408 251.474 263.248 243.308 245.714 238.301 C 263.552 227.263 275.56 207.681 275.56 185.205 C 275.56 150.697 247.492 122.621 212.976 122.621 C 178.459 122.621 150.389 150.697 150.389 185.205 C 150.389 207.68 162.4 227.263 180.236 238.301 C 162.702 243.308 141.542 251.474 122.421 263.116 C 128.322 251.96 135.382 241.695 143.743 232.886 Z M 212.975 232.144 C 187.091 232.144 166.037 211.09 166.037 185.205 C 166.037 184.961 166.105 184.734 166.108 184.491 C 171.742 183.823 177.182 182.475 182.256 180.222 C 183.396 183.13 186.192 185.205 189.505 185.205 C 193.826 185.205 197.329 181.702 197.329 177.382 C 197.329 175.468 196.561 173.776 195.419 172.416 C 202.689 166.897 208.607 160.147 212.976 153.119 C 217.343 160.147 223.263 166.897 230.532 172.416 C 229.39 173.776 228.622 175.468 228.622 177.382 C 228.622 181.702 232.125 185.205 236.445 185.205 C 239.76 185.205 242.555 183.129 243.695 180.221 C 248.769 182.474 254.21 183.823 259.842 184.491 C 259.846 184.734 259.915 184.961 259.915 185.205 C 259.914 211.09 238.859 232.144 212.975 232.144 Z M 169.271 168.432 C 174.859 153.927 187.359 142.888 202.789 139.451 C 197.923 150.776 185.474 164.476 169.271 168.432 Z M 223.161 139.451 C 238.59 142.888 251.091 153.927 256.679 168.432 C 240.475 164.476 228.028 150.776 223.161 139.451 Z M 144.592 451.843 C 51.381 328.593 137.541 269.043 150.536 263.571 C 187.258 248.107 233.135 236.26 273.894 263.619 C 284.708 270.878 371.566 313.45 284.043 450.994 L 144.592 451.843 Z" style="fill: #a4c1ff"></path>
      <path d="M 229.996 418.761 L 226.676 428.551 C 215.883 425.511 208.203 420.671 203.636 414.031 C 199.076 407.391 196.796 399.368 196.796 389.961 L 196.796 372.941 C 196.796 366.741 195.383 361.911 192.556 358.451 C 189.736 354.998 185.393 353.271 179.526 353.271 L 179.526 341.061 C 185.393 341.061 189.736 339.361 192.556 335.961 C 195.383 332.554 196.796 327.724 196.796 321.471 L 196.796 304.381 C 196.796 294.914 199.076 286.874 203.636 280.261 C 208.203 273.648 215.883 268.821 226.676 265.781 L 229.996 275.491 C 223.909 277.424 219.579 280.898 217.006 285.911 C 214.433 290.918 213.146 297.074 213.146 304.381 L 213.146 321.471 C 213.146 327.284 211.983 332.404 209.656 336.831 C 207.336 341.258 203.823 344.718 199.116 347.211 C 203.823 349.758 207.336 353.258 209.656 357.711 C 211.983 362.164 213.146 367.241 213.146 372.941 L 213.146 389.961 C 213.146 397.261 214.433 403.388 217.006 408.341 C 219.579 413.294 223.909 416.768 229.996 418.761 Z" style="fill: rgb(27, 85, 131); white-space: pre;"></path>
      <path d="M 182.478 389.339 L 180.501 395.17 C 174.075 393.359 169.502 390.477 166.782 386.523 C 164.066 382.57 162.708 377.792 162.708 372.19 L 162.708 362.055 C 162.708 358.363 161.867 355.487 160.184 353.426 C 158.505 351.37 155.919 350.342 152.425 350.342 L 152.425 343.072 C 155.919 343.072 158.505 342.059 160.184 340.035 C 161.867 338.006 162.708 335.129 162.708 331.405 L 162.708 321.229 C 162.708 315.593 164.066 310.804 166.782 306.867 C 169.502 302.928 174.075 300.055 180.501 298.244 L 182.478 304.026 C 178.854 305.177 176.275 307.246 174.743 310.231 C 173.211 313.213 172.445 316.878 172.445 321.229 L 172.445 331.405 C 172.445 334.868 171.753 337.916 170.367 340.553 C 168.985 343.19 166.893 345.249 164.09 346.733 C 166.893 348.25 168.985 350.334 170.367 352.985 C 171.753 355.637 172.445 358.661 172.445 362.055 L 172.445 372.19 C 172.445 376.537 173.211 380.186 174.743 383.135 C 176.275 386.085 178.854 388.152 182.478 389.339 Z" style="fill: rgb(27, 85, 131); white-space: pre;"></path>
      <path d="M 149.192 372.709 L 147.966 376.325 C 143.981 375.202 141.145 373.415 139.459 370.963 C 137.775 368.511 136.931 365.549 136.931 362.075 L 136.931 355.789 C 136.931 353.5 136.41 351.716 135.366 350.438 C 134.326 349.163 132.721 348.526 130.555 348.526 L 130.555 344.018 C 132.721 344.018 134.326 343.388 135.366 342.134 C 136.41 340.876 136.931 339.092 136.931 336.782 L 136.931 330.471 C 136.931 326.977 137.775 324.007 139.459 321.565 C 141.145 319.122 143.981 317.341 147.966 316.217 L 149.192 319.803 C 146.945 320.517 145.345 321.8 144.395 323.651 C 143.445 325.501 142.97 327.773 142.97 330.471 L 142.97 336.782 C 142.97 338.929 142.541 340.819 141.681 342.455 C 140.825 344.09 139.527 345.367 137.789 346.287 C 139.527 347.228 140.825 348.521 141.681 350.164 C 142.541 351.81 142.97 353.685 142.97 355.789 L 142.97 362.075 C 142.97 364.77 143.445 367.033 144.395 368.861 C 145.345 370.691 146.945 371.973 149.192 372.709 Z" style="fill: rgb(27, 85, 131); white-space: pre;"></path>
      <path d="M 253.229 390.256 L 251.252 396.087 C 244.826 394.276 240.253 391.394 237.533 387.44 C 234.817 383.487 233.459 378.709 233.459 373.107 L 233.459 362.972 C 233.459 359.28 232.618 356.404 230.935 354.343 C 229.256 352.287 226.67 351.259 223.176 351.259 L 223.176 343.989 C 226.67 343.989 229.256 342.976 230.935 340.952 C 232.618 338.923 233.459 336.046 233.459 332.322 L 233.459 322.146 C 233.459 316.51 234.817 311.721 237.533 307.784 C 240.253 303.845 244.826 300.972 251.252 299.161 L 253.229 304.943 C 249.605 306.094 247.026 308.163 245.494 311.148 C 243.962 314.13 243.196 317.795 243.196 322.146 L 243.196 332.322 C 243.196 335.785 242.504 338.833 241.118 341.47 C 239.736 344.107 237.644 346.166 234.841 347.65 C 237.644 349.167 239.736 351.251 241.118 353.902 C 242.504 356.554 243.196 359.578 243.196 362.972 L 243.196 373.107 C 243.196 377.454 243.962 381.103 245.494 384.052 C 247.026 387.002 249.605 389.069 253.229 390.256 Z" style="fill: rgb(27, 85, 131); white-space: pre;"></path>
      <path d="M 273.259 373.663 L 272.033 377.279 C 268.048 376.156 265.212 374.369 263.526 371.917 C 261.842 369.465 260.998 366.503 260.998 363.029 L 260.998 356.743 C 260.998 354.454 260.477 352.67 259.433 351.392 C 258.393 350.117 256.788 349.48 254.622 349.48 L 254.622 344.972 C 256.788 344.972 258.393 344.342 259.433 343.088 C 260.477 341.83 260.998 340.046 260.998 337.736 L 260.998 331.425 C 260.998 327.931 261.842 324.961 263.526 322.519 C 265.212 320.076 268.048 318.295 272.033 317.171 L 273.259 320.757 C 271.012 321.471 269.412 322.754 268.462 324.605 C 267.512 326.455 267.037 328.727 267.037 331.425 L 267.037 337.736 C 267.037 339.883 266.608 341.773 265.748 343.409 C 264.892 345.044 263.594 346.321 261.856 347.241 C 263.594 348.182 264.892 349.475 265.748 351.118 C 266.608 352.764 267.037 354.639 267.037 356.743 L 267.037 363.029 C 267.037 365.724 267.512 367.987 268.462 369.815 C 269.412 371.645 271.012 372.927 273.259 373.663 Z" style="fill: rgb(27, 85, 131); white-space: pre;"></path>
      <path d="M 126.884 363.379 L 126.097 365.702 C 123.537 364.981 121.715 363.833 120.632 362.257 C 119.55 360.682 119.008 358.779 119.008 356.548 L 119.008 352.51 C 119.008 351.039 118.673 349.893 118.002 349.072 C 117.334 348.253 116.303 347.844 114.912 347.844 L 114.912 344.948 C 116.303 344.948 117.334 344.543 118.002 343.738 C 118.673 342.929 119.008 341.783 119.008 340.299 L 119.008 336.245 C 119.008 334.001 119.55 332.093 120.632 330.524 C 121.715 328.955 123.537 327.81 126.097 327.088 L 126.884 329.392 C 125.441 329.851 124.413 330.675 123.803 331.864 C 123.192 333.052 122.887 334.512 122.887 336.245 L 122.887 340.299 C 122.887 341.679 122.612 342.893 122.059 343.944 C 121.509 344.994 120.675 345.814 119.559 346.405 C 120.675 347.01 121.509 347.841 122.059 348.896 C 122.612 349.953 122.887 351.158 122.887 352.51 L 122.887 356.548 C 122.887 358.279 123.192 359.733 123.803 360.907 C 124.413 362.083 125.441 362.906 126.884 363.379 Z" style="fill: rgb(27, 85, 131); white-space: pre;"></path>
      <path d="M 286.738 363.615 L 285.951 365.938 C 283.391 365.217 281.569 364.069 280.486 362.493 C 279.404 360.918 278.862 359.015 278.862 356.784 L 278.862 352.746 C 278.862 351.275 278.527 350.129 277.856 349.308 C 277.188 348.489 276.157 348.08 274.766 348.08 L 274.766 345.184 C 276.157 345.184 277.188 344.779 277.856 343.974 C 278.527 343.165 278.862 342.019 278.862 340.535 L 278.862 336.481 C 278.862 334.237 279.404 332.329 280.486 330.76 C 281.569 329.191 283.391 328.046 285.951 327.324 L 286.738 329.628 C 285.295 330.087 284.267 330.911 283.657 332.1 C 283.046 333.288 282.741 334.748 282.741 336.481 L 282.741 340.535 C 282.741 341.915 282.466 343.129 281.913 344.18 C 281.363 345.23 280.529 346.05 279.413 346.641 C 280.529 347.246 281.363 348.077 281.913 349.132 C 282.466 350.189 282.741 351.394 282.741 352.746 L 282.741 356.784 C 282.741 358.515 283.046 359.969 283.657 361.143 C 284.267 362.319 285.295 363.142 286.738 363.615 Z" style="fill: rgb(27, 85, 131); white-space: pre;"></path>
    </g>
  </g>
  <path style="fill: rgb(216, 216, 216); stroke: rgb(255, 255, 255); paint-order: stroke;" d="M 99.796 182.768 C 99.796 182.768 113.632 201.43 100.111 201.078 C 86.591 200.725 99.473 183.511 99.796 182.768 Z"></path>
  <path style="fill: rgb(216, 216, 216); stroke: rgb(0, 0, 0);" d="M 209.262 139.251"></path>
  <path style="fill: rgb(216, 216, 216); stroke: rgb(0, 0, 0);" d="M 100.521 187.043"></path>
</svg>
